# xmcd
#
# Track frame offsets:
#	150
#	19032
#	40531
#	52110
#	73886
#	101795
#	123701
#	143319
#	160784
#	175359
#	188517
#	205026
#	222432
#	236609
#	246361
#	261069
#	278097
#	292286
#	313445
#	329593
#
# Disc length: 4729 seconds
#
# Revision: 0
# Processed by: cddbd v1.5.2PL0 Copyright (c) Steve Scherf et al.
# Submitted via: EasyCDDAExtractor 5.0.2.1
#
DISCID=3a127714
DTITLE=Jos Steen - Devil's Music I
DYEAR=2007
DGENRE=blues
TTITLE0=Change Sometime
TTITLE1=Rollin' And Tumblin'
TTITLE2=My Black Mama
TTITLE3=The Devil's Music
TTITLE4=Meeting With The Devil
TTITLE5=Very Evil Very mad
TTITLE6=The Devil's Highway
TTITLE7=Les Pierres Ont Des Oreilles Pour Manger l' Heure Exacte
TTITLE8=Ticket To Ride
TTITLE9=Song For Jimmy Carl Black
TTITLE10=Hot Rats
TTITLE11=The Lazy Elephant Walk
TTITLE12=The Crazy Crocodile Walk
TTITLE13=The Terrible Snowman Talk
TTITLE14=The Googie Boogie
TTITLE15=Voodoo, Horror and Electricity
TTITLE16=Sad Glad
TTITLE17=Why Don't We Do It In The Road
TTITLE18=Honky Tonk Woman
TTITLE19=Ticket To Ride
EXTD=
EXTT0=
EXTT1=
EXTT2=
EXTT3=
EXTT4=
EXTT5=
EXTT6=
EXTT7=
EXTT8=
EXTT9=
EXTT10=
EXTT11=
EXTT12=
EXTT13=
EXTT14=
EXTT15=
EXTT16=
EXTT17=
EXTT18=
EXTT19=
PLAYORDER=
